Coordinates
version=1
nRows=9
nColumns=63
inDegrees=yes

Units are S.I. units (second, meters, Newtons, ...)
If the header above contains a line with 'inDegrees', this indicates whether rotational values are in degrees (yes) or radians (no).

endheader
time	pelvis_tilt	pelvis_list	pelvis_rotation	pelvis_tx	pelvis_ty	pelvis_tz	hip_flexion_r	hip_adduction_r	hip_rotation_r	knee_angle_r	knee_angle_r_beta	ankle_angle_r	subtalar_angle_r	mtp_angle_r	hip_flexion_l	hip_adduction_l	hip_rotation_l	knee_angle_l	knee_angle_l_beta	ankle_angle_l	subtalar_angle_l	mtp_angle_l	L5_S1_Flex_Ext	L5_S1_Lat_Bending	L5_S1_axial_rotation	L4_L5_Flex_Ext	L4_L5_Lat_Bending	L4_L5_axial_rotation	L3_L4_Flex_Ext	L3_L4_Lat_Bending	L3_L4_axial_rotation	L2_L3_Flex_Ext	L2_L3_Lat_Bending	L2_L3_axial_rotation	L1_L2_Flex_Ext	L1_L2_Lat_Bending	L1_L2_axial_rotation	L1_T12_Flex_Ext	L1_T12_Lat_Bending	L1_T12_axial_rotation	Abs_r3	Abs_r2	Abs_r1	Abs_t1	Abs_t2	neck_flexion	neck_bending	neck_rotation	arm_flex_r	arm_add_r	arm_rot_r	elbow_flex_r	pro_sup_r	wrist_flex_r	wrist_dev_r	arm_flex_l	arm_add_l	arm_rot_l	elbow_flex_l	pro_sup_l	wrist_flex_l	wrist_dev_l
      4.82000000	     -6.37876391	     -6.49452605	     91.46306223	      0.21435480	      0.99279097	      0.55582924	     -7.01007685	     -0.84048136	     -2.15036639	      1.35893184	      0.02371783	     27.89675768	     -0.94867329	      0.00000000	     -5.46271736	      0.47737988	     -0.21600826	      3.10234006	      0.05414605	     29.37939311	     10.61297631	      0.00000000	     -0.56310357	     -0.13570863	      0.25227588	     -1.04573963	     -0.18049248	      0.26804312	     -0.92512285	     -0.32996197	      0.26804312	     -0.64357107	     -0.32996197	      0.22074140	     -0.52289797	     -0.27673705	      0.20497415	     -0.32175738	     -0.21021267	      0.18920691	     -4.02219247	     -1.53516321	      1.40308276	      0.00000000	      0.00000000	     23.39495039	     -4.92847830	     -2.17730488	      5.24581689	    -17.25384721	     95.38596573	     12.74485749	      6.62819659	     -5.40539628	     -5.33369375	     11.88840219	    -14.34787151	    140.58488710	      4.07430153	      3.66130580	     -7.02803357	     -7.58646046
      4.84000000	     -6.40156862	     -6.49832903	     91.41695480	      0.21422385	      0.99288308	      0.55580025	     -7.04752992	     -0.84996471	     -0.63887376	      1.24857753	      0.02179179	     27.39001705	     -3.03595664	      0.00000000	     -5.53597125	      0.55928009	      0.34520513	      2.85339374	      0.04980112	     29.06761743	      9.81303275	      0.00000000	     -0.56738990	     -0.12570557	      0.21995873	     -1.05369978	     -0.16718841	      0.23370615	     -0.93216486	     -0.30564053	      0.23370615	     -0.64846991	     -0.30564053	      0.19246389	     -0.52687826	     -0.25633881	      0.17871647	     -0.32420659	     -0.19471793	      0.16496905	     -4.05280929	     -1.42200659	      1.22334446	      0.00000000	      0.00000000	     23.05195179	     -4.11197541	     -1.59188541	      5.42249560	    -17.21199089	     96.91178577	     12.64881331	      5.97523866	     -5.40387543	     -6.36578931	     11.93629445	    -14.36850165	    135.24620452	      5.17593430	      5.36485913	     -7.69884477	     -7.23622853
      4.86000000	     -6.40424438	     -6.57075243	     91.32679470	      0.21410468	      0.99322787	      0.55590646	     -6.94781655	     -0.90908012	     -1.98982906	      1.25845719	      0.02196422	     27.68917427	     -0.95654929	      0.00000000	     -5.43735594	      0.59293910	     -0.21863006	      2.78876366	      0.04867311	     29.11585979	     10.44546191	      0.00000000	     -0.56028440	     -0.11109615	      0.23436280	     -1.04050415	     -0.14775788	      0.24901047	     -0.92049123	     -0.27011917	      0.24901047	     -0.64034904	     -0.27011917	      0.20506745	     -0.52028009	     -0.22654726	      0.19041977	     -0.32014650	     -0.17208793	      0.17577210	     -4.00205541	     -1.25674183	      1.30345556	      0.00000000	      0.00000000	     22.63004592	     -3.39554438	     -1.17357892	      5.15973425	    -17.36627489	     95.13726775	     13.21394786	      8.49749086	     -6.00406023	     -7.44480596	     11.94721219	    -14.10802287	    133.53249253	      5.80700581	      7.75566985	     -8.88779785	     -7.22736352
      4.88000000	     -6.50220850	     -6.69711597	     91.49776154	      0.21369009	      0.99367418	      0.55619421	     -6.84299502	     -0.99653183	     -1.61292075	      1.21168276	      0.02114785	     27.39056424	     -1.83896750	      0.00000000	     -5.18700382	      0.69968889	     -0.28554805	      2.83532134	      0.04948569	     29.13325109	     10.69207706	      0.00000000	     -0.55116307	     -0.10872215	      0.20415187	     -1.02356494	     -0.14460046	      0.21691136	     -0.90550581	     -0.26434703	      0.21691136	     -0.62992427	     -0.26434703	      0.17863289	     -0.51181003	     -0.22170620	      0.16587340	     -0.31493458	     -0.16841061	      0.15311390	     -3.93690269	     -1.22988667	      1.13543147	      0.00000000	      0.00000000	     22.20888073	     -2.51903062	     -0.70231113	      5.22311188	    -17.16156663	     97.53246684	     13.23929626	      8.93242035	     -6.39146446	     -8.40118377	     12.00641931	    -13.70591287	    136.06660825	      6.21317058	      8.45249398	    -10.42794047	     -7.32825376
      4.90000000	     -6.64135319	     -6.80334463	     91.46655503	      0.21351252	      0.99395040	      0.55597301	     -6.80160885	     -1.15548025	     -0.27992143	      1.14775785	      0.02003215	     26.97256658	     -3.54726757	      0.00000000	     -5.04466673	      0.85984319	     -1.00492046	      2.81135212	      0.04906735	     29.21473353	     11.57549263	      0.00000000	     -0.53426271	     -0.11188445	      0.23853298	     -0.99217927	     -0.14880632	      0.25344129	     -0.87774020	     -0.27203586	      0.25344129	     -0.61060885	     -0.27203586	      0.20871635	     -0.49611635	     -0.22815478	      0.19380804	     -0.30527771	     -0.17330902	      0.17889973	     -3.81618509	     -1.26565930	      1.32664885	      0.00000000	      0.00000000	     22.00977529	     -1.98577284	     -0.51267797	      5.35274274	    -16.65823265	    103.72967448	     12.73778850	      6.63006686	     -6.29127316	     -9.52419396	     12.13169933	    -13.11253394	    142.85125298	      6.27260667	      7.32345062	    -10.94034628	     -7.05680899
      4.92000000	     -6.83053381	     -6.85719857	     91.55877436	      0.21316941	      0.99410494	      0.55568749	     -6.82875570	     -1.36919046	     -0.54050143	      1.11488270	      0.01945837	     27.00274938	     -3.25086552	      0.00000000	     -4.96676347	      1.06257535	     -1.29742674	      2.78797046	      0.04865926	     29.27543113	     12.07808223	      0.00000000	     -0.52069800	     -0.12172104	      0.25828658	     -0.96698826	     -0.16188899	      0.27442949	     -0.85545475	     -0.29595254	      0.27442949	     -0.59510575	     -0.29595254	      0.22600076	     -0.48352017	     -0.24821355	      0.20985785	     -0.29752684	     -0.18854590	      0.19371494	     -3.71929378	     -1.37693278	      1.43651249	      0.00000000	      0.00000000	     22.03785847	     -1.70864332	     -0.28638976	      5.36253319	    -16.08729310	    109.31678377	     12.23842190	      6.15779311	     -6.68936845	     -9.96700084	     12.29085898	    -12.53757789	    149.44983611	      6.45913745	      7.77927111	    -11.29133142	     -6.35926261
      4.94000000	     -7.03535572	     -6.83864519	     91.64812668	      0.21281841	      0.99407115	      0.55524210	     -6.94832343	     -1.60122389	     -0.59717116	      1.10039341	      0.01920549	     27.14156738	     -3.17821014	      0.00000000	     -4.99656735	      1.28658226	     -1.27479023	      2.78629261	      0.04862998	     29.35378896	     12.14550795	      0.00000000	     -0.51577643	     -0.13581729	      0.29750156	     -0.95784841	     -0.18063700	      0.31609541	     -0.84736910	     -0.33022617	      0.31609541	     -0.58948089	     -0.33022617	      0.26031387	     -0.47895000	     -0.27695862	      0.24172002	     -0.29471465	     -0.21038099	      0.22312617	     -3.68413948	     -1.53639239	      1.65461443	      0.00000000	      0.00000000	     22.35087603	     -1.84463499	     -0.33778465	      5.10247701	    -15.57955762	    112.59383053	     11.79907755	      8.62905700	     -7.15554528	     -9.66303750	     12.45319430	    -12.10496212	    153.19915711	      6.78092119	     10.84339616	    -10.79136536	     -5.67722193
      4.96000000	     -7.21930698	     -6.84247235	     91.72718769	      0.21249599	      0.99386952	      0.55480306	     -7.03698718	     -1.81283624	     -0.66680722	      1.11784872	      0.01951014	     27.23830998	     -3.08591818	      0.00000000	     -5.03403954	      1.48275118	     -1.27367322	      2.79651426	      0.04880838	     29.47419846	     12.28710226	      0.00000000	     -0.51510848	     -0.15208772	      0.33884977	     -0.95660795	     -0.20227666	      0.36002788	     -0.84627172	     -0.36978607	      0.36002788	     -0.58871748	     -0.36978607	      0.29649355	     -0.47832973	     -0.31013727	      0.27531544	     -0.29433298	     -0.23558387	      0.25413733	     -3.67936834	     -1.72044666	      1.88458076	      0.00000000	      0.00000000	     22.91595477	     -2.32144967	     -0.70013704	      4.88090135	    -15.04856807	    116.58290871	     11.28516289	     10.34747764	     -7.08832903	     -9.02510476	     12.56103036	    -11.72673923	    156.79260585	      6.85754648	     12.72748133	     -9.18315012	     -4.91718203
      4.98000000	     -7.38020274	     -6.99431043	     91.85305431	      0.21193729	      0.99337248	      0.55447161	     -6.94966631	     -2.02407870	     -1.12139765	      1.19743421	      0.02089917	     27.53374507	     -2.45812282	      0.00000000	     -4.89874943	      1.66218065	     -0.97492711	      2.90236026	      0.05065574	     29.54875028	     12.14363467	      0.00000000	     -0.50758782	     -0.16797734	      0.36819372	     -0.94264134	     -0.22340986	      0.39120582	     -0.83391603	     -0.40842010	      0.39120582	     -0.58012212	     -0.40842010	      0.32216950	     -0.47134605	     -0.34253939	      0.29915739	     -0.29003568	     -0.26019690	      0.27614529	     -3.62564904	     -1.90019327	      2.04778299	      0.00000000	      0.00000000	     23.78273246	     -2.78071841	     -1.09913595	      4.84547972	    -14.21412879	    126.48463568	     10.18222949	      4.96945254	     -5.90523741	     -8.77146373	     12.52496726	    -11.28428592	    164.64541228	      6.41405151	      7.97794287	     -6.92775990	     -4.51190580
